<svg width="1015" height="32" viewBox="0 0 1015 32" fill="none" xmlns="http://www.w3.org/2000/svg">
<g opacity="0.8">
<g clip-path="url(#clip0_802_403)">
<path d="M24.4466 14.0828C24.0017 14.5374 23.6608 15.086 23.4486 15.6896C23.2363 16.2932 23.1578 16.9369 23.2184 17.5749L23.1973 17.5534C23.2597 18.3043 23.16 19.06 22.9051 19.7677C22.6502 20.4755 22.2463 21.1182 21.7215 21.6511C21.1968 22.184 20.5637 22.5942 19.8667 22.853C19.1697 23.1118 18.4254 23.213 17.6859 23.1497L17.707 23.1711C16.8224 23.0875 15.9339 23.2829 15.1627 23.7308C14.3915 24.1787 13.7751 24.8573 13.3976 25.6739C13.02 26.4905 12.8997 27.4056 13.0531 28.2941C13.2065 29.1827 13.6261 30.0016 14.2545 30.6393C14.8831 31.2768 15.69 31.7021 16.5652 31.857C17.4405 32.012 18.3415 31.8889 19.1454 31.5049C19.9493 31.1209 20.6169 30.4943 21.0574 29.7109C21.4978 28.9273 21.6895 28.025 21.6063 27.1269L21.6287 27.1483C21.5662 26.3974 21.666 25.6417 21.9208 24.9339C22.1757 24.2262 22.5797 23.5834 23.1045 23.0506C23.6293 22.5177 24.2622 22.1076 24.9593 21.8488C25.6563 21.5899 26.4006 21.4887 27.1401 21.5521L27.1178 21.5306C27.8404 21.5966 28.5677 21.4763 29.2324 21.1808C29.897 20.8854 30.4775 20.4244 30.9199 19.8405C31.3623 19.2567 31.6525 18.5689 31.7634 17.8408C31.8744 17.1128 31.8025 16.368 31.5545 15.6757C31.3066 14.9833 30.8905 14.3657 30.3448 13.8802C29.7992 13.3946 29.1417 13.0568 28.4332 12.8979C27.7248 12.739 26.9882 12.7643 26.2919 12.9715C25.5956 13.1786 24.9621 13.5609 24.4501 14.0828H24.4466Z" fill="#282938"/>
<path d="M15.7846 20.3597L15.7623 20.3383C16.3909 20.4026 17.0257 20.3243 17.6207 20.1089C18.2158 19.8937 18.7564 19.5468 19.2032 19.0933C19.6501 18.6399 19.9922 18.0913 20.2046 17.4873C20.4171 16.8832 20.4948 16.2387 20.4319 15.6004L20.4542 15.6219C20.3918 14.871 20.4915 14.1152 20.7464 13.4076C21.0013 12.6998 21.4052 12.0571 21.93 11.5242C22.4548 10.9913 23.0878 10.5811 23.7848 10.3223C24.4818 10.0635 25.2261 9.96219 25.9657 10.0256L25.9433 10.0042C26.828 10.0885 27.7168 9.89367 28.4885 9.44633C29.2601 8.99892 29.877 8.32072 30.2551 7.5042C30.6332 6.6877 30.754 5.77264 30.6012 4.88383C30.4483 3.99502 30.029 3.17575 29.4007 2.53775C28.7724 1.89975 27.9656 1.4741 27.0902 1.31883C26.2149 1.16357 25.3137 1.28626 24.5096 1.67018C23.7054 2.0541 23.0375 2.68054 22.5969 3.46407C22.1563 4.2476 21.9645 5.15007 22.0475 6.04838L22.0264 6.02573C22.089 6.77669 21.9895 7.53249 21.7346 8.24033C21.4798 8.94818 21.0758 9.59099 20.551 10.1239C20.0262 10.6569 19.3931 11.067 18.696 11.3258C17.9989 11.5845 17.2545 11.6856 16.515 11.622L16.5361 11.6446C15.9075 11.5804 15.2727 11.6587 14.6777 11.874C14.0826 12.0892 13.542 12.4362 13.0952 12.8896C12.6484 13.343 12.3062 13.8916 12.0938 14.4956C11.8813 15.0998 11.8036 15.7442 11.8665 16.3825L11.8454 16.3611C11.9076 17.1119 11.8077 17.8675 11.5527 18.5752C11.2978 19.2828 10.8939 19.9255 10.3691 20.4583C9.84436 20.9912 9.21145 21.4013 8.51453 21.6602C7.8176 21.9191 7.07344 22.0205 6.33395 21.9573L6.35509 21.9788C5.47039 21.8944 4.58161 22.0892 3.80995 22.5366C3.0383 22.984 2.42135 23.6622 2.04326 24.4787C1.66516 25.2953 1.54433 26.2103 1.69724 27.0991C1.85014 27.9879 2.26935 28.8072 2.89767 29.4452C3.526 30.0832 4.33286 30.5088 5.20819 30.6641C6.08352 30.8193 6.98471 30.6967 7.78885 30.3128C8.59298 29.9289 9.2609 29.3024 9.70148 28.5189C10.1421 27.7354 10.3339 26.8329 10.2509 25.9345L10.2732 25.956C10.2108 25.2051 10.3105 24.4493 10.5654 23.7417C10.8203 23.0339 11.2243 22.3912 11.749 21.8583C12.2738 21.3254 12.9068 20.9152 13.6038 20.6564C14.3008 20.3976 15.0451 20.2964 15.7846 20.3597Z" fill="#282938"/>
<path d="M7.91448 17.9671C8.35952 17.5126 8.70023 16.964 8.91234 16.3603C9.12443 15.7567 9.20267 15.113 9.14147 14.4751L9.16378 14.4965C9.1013 13.7454 9.20106 12.9895 9.45606 12.2816C9.71113 11.5736 10.1153 10.9308 10.6403 10.3978C11.1654 9.86489 11.7987 9.45482 12.496 9.19616C13.1934 8.93749 13.9378 8.83653 14.6775 8.90028L14.6552 8.87882C15.5396 8.96294 16.4281 8.76804 17.1993 8.32068C17.9707 7.87331 18.5873 7.19526 18.9652 6.37901C19.343 5.56276 19.4637 4.64803 19.3108 3.75955C19.1579 2.87108 18.7388 2.05212 18.1108 1.41435C17.4827 0.77659 16.6761 0.351065 15.8011 0.195809C14.9261 0.040555 14.0253 0.163128 13.2214 0.546811C12.4175 0.930495 11.7497 1.55661 11.3091 2.33978C10.8685 3.12294 10.6766 4.02504 10.7594 4.92305L10.7383 4.90159C10.8007 5.65251 10.701 6.40821 10.4461 7.11596C10.1912 7.82371 9.78731 8.46644 9.26249 8.99931C8.73769 9.53219 8.1047 9.94235 7.40768 10.2012C6.71066 10.46 5.96641 10.5613 5.22688 10.4978L5.24801 10.5193C4.52541 10.4535 3.79814 10.574 3.1336 10.8696C2.46905 11.1651 1.88874 11.6262 1.44643 12.2102C1.00411 12.7941 0.714118 13.4819 0.603308 14.2099C0.492498 14.938 0.564459 15.6827 0.812526 16.3749C1.06059 17.0672 1.47674 17.6847 2.0224 18.1701C2.56806 18.6557 3.22557 18.9935 3.93403 19.1522C4.64248 19.311 5.37893 19.2856 6.07516 19.0784C6.77138 18.8713 7.40484 18.489 7.91684 17.9671H7.91448Z" fill="#282938"/>
<path d="M44.2852 6.07617H47.7724V23.3073H44.2852V6.07617Z" fill="#282938"/>
<path d="M49.7482 17.4075C49.7433 16.1692 50.1005 14.9574 50.7745 13.9254C51.4484 12.8934 52.4089 12.0876 53.5342 11.6104C54.6595 11.133 55.8989 11.0056 57.0957 11.2442C58.2923 11.4827 59.3924 12.0764 60.2564 12.9503C61.1205 13.8241 61.7097 14.9387 61.9494 16.1529C62.1891 17.367 62.0686 18.6261 61.603 19.7706C61.1374 20.9151 60.3478 21.8936 59.3342 22.582C58.3205 23.2705 57.1284 23.638 55.909 23.638C55.0994 23.6474 54.2961 23.4929 53.5462 23.1834C52.7961 22.8739 52.1145 22.4157 51.5408 21.8356C50.9672 21.2555 50.5132 20.5652 50.2054 19.8048C49.8976 19.0445 49.7422 18.2296 49.7482 17.4075ZM58.5824 17.4075C58.5679 16.8738 58.3987 16.3563 58.096 15.9195C57.7934 15.4829 57.3707 15.1466 56.8809 14.9525C56.3909 14.7584 55.8556 14.7153 55.3416 14.8285C54.8278 14.9418 54.3581 15.2063 53.9915 15.589C53.6248 15.9718 53.3774 16.4558 53.2801 16.9805C53.1829 17.5053 53.2402 18.0475 53.4449 18.5394C53.6494 19.0313 53.9923 19.451 54.4306 19.7461C54.8689 20.0411 55.3831 20.1986 55.909 20.1985C56.2691 20.2083 56.6273 20.1422 56.961 20.0043C57.2947 19.8666 57.5967 19.66 57.8478 19.3978C58.0991 19.1355 58.294 18.8234 58.4205 18.4808C58.5469 18.1383 58.6021 17.7728 58.5824 17.4075Z" fill="#282938"/>
<path d="M75.9688 11.5059V22.7127C75.9688 26.6781 72.9231 28.3543 69.8315 28.3543C68.743 28.4371 67.6531 28.2138 66.6813 27.7091C65.7096 27.2043 64.8934 26.4376 64.3224 25.493L67.2977 23.7464C67.5377 24.2388 67.9201 24.6451 68.3937 24.9107C68.8673 25.1764 69.4095 25.2888 69.9477 25.2331C70.2918 25.2815 70.6421 25.2507 70.9728 25.143C71.3035 25.0355 71.6062 24.8536 71.8584 24.6112C72.1106 24.3687 72.306 24.0718 72.4299 23.7424C72.5538 23.413 72.6032 23.0594 72.5743 22.7079V21.6291C72.166 22.1364 71.6462 22.5395 71.0568 22.8059C70.4673 23.0724 69.8244 23.1948 69.1799 23.1634C67.6462 23.1143 66.1915 22.4612 65.1238 21.3422C64.056 20.2233 63.459 18.7264 63.459 17.1684C63.459 15.6103 64.056 14.1134 65.1238 12.9944C66.1915 11.8756 67.6462 11.2224 69.1799 11.1733C69.8244 11.1419 70.4673 11.2644 71.0568 11.5308C71.6462 11.7973 72.166 12.2004 72.5743 12.7077V11.5035L75.9688 11.5059ZM72.5755 17.1702C72.599 16.5995 72.4537 16.0348 72.1583 15.5487C71.863 15.0626 71.4312 14.6774 70.9184 14.4425C70.4057 14.2078 69.8355 14.1342 69.2811 14.2312C68.7269 14.3283 68.2139 14.5915 67.8081 14.9871C67.4024 15.3828 67.1226 15.8926 67.0047 16.451C66.8868 17.0095 66.9361 17.591 67.1464 18.1207C67.3568 18.6504 67.7183 19.1041 68.1848 19.4234C68.6512 19.7427 69.2009 19.9129 69.7635 19.9123C70.1298 19.9382 70.4975 19.8859 70.8428 19.7589C71.1881 19.6318 71.5034 19.4326 71.7683 19.1744C72.0332 18.916 72.2419 18.6042 72.3809 18.259C72.5199 17.9139 72.5862 17.543 72.5755 17.1702Z" fill="#282938"/>
<path d="M77.9435 17.4075C77.9387 16.1692 78.2958 14.9574 78.9699 13.9254C79.6438 12.8934 80.6043 12.0876 81.7296 11.6104C82.8549 11.133 84.0943 11.0056 85.291 11.2442C86.4877 11.4827 87.5877 12.0764 88.4518 12.9503C89.3159 13.8241 89.9051 14.9387 90.1448 16.1529C90.3846 17.367 90.264 18.6261 89.7984 19.7706C89.3328 20.9151 88.5433 21.8936 87.5296 22.582C86.5159 23.2705 85.3238 23.638 84.1043 23.638C83.2948 23.6474 82.4915 23.4929 81.7416 23.1834C80.9915 22.8739 80.3098 22.4157 79.7362 21.8356C79.1626 21.2555 78.7086 20.5652 78.4008 19.8048C78.093 19.0445 77.9376 18.2296 77.9435 17.4075ZM86.7779 17.4075C86.7633 16.8738 86.5941 16.3563 86.2914 15.9195C85.9888 15.4829 85.5661 15.1466 85.0762 14.9525C84.5863 14.7584 84.0509 14.7153 83.537 14.8285C83.0231 14.9418 82.5535 15.2063 82.1868 15.589C81.8202 15.9718 81.5727 16.4558 81.4755 16.9805C81.3783 17.5053 81.4356 18.0475 81.6402 18.5394C81.8448 19.0313 82.1877 19.451 82.6259 19.7461C83.0643 20.0411 83.5784 20.1986 84.1043 20.1985C84.4645 20.2083 84.8227 20.1422 85.1564 20.0043C85.4901 19.8666 85.7921 19.66 86.0432 19.3978C86.2944 19.1355 86.4894 18.8234 86.6158 18.4808C86.7422 18.1383 86.7974 17.7728 86.7779 17.4075Z" fill="#282938"/>
<path d="M91.8906 8.34231C91.8906 7.92212 92.0133 7.51136 92.2433 7.16199C92.4731 6.8126 92.7999 6.54029 93.1825 6.37949C93.5649 6.21869 93.9853 6.17662 94.3909 6.2586C94.7974 6.34057 95.1695 6.54292 95.4625 6.84004C95.7546 7.13716 95.9546 7.51571 96.0346 7.92783C96.1155 8.33994 96.0746 8.76712 95.9155 9.15532C95.7574 9.54357 95.4895 9.87533 95.1453 10.1087C94.8011 10.3422 94.3965 10.4669 93.9825 10.4669C93.43 10.4612 92.9008 10.2356 92.5095 9.83844C92.1183 9.44117 91.8961 8.90403 91.8906 8.34231ZM92.2429 11.5053H95.7314V23.3082H92.2382L92.2429 11.5053Z" fill="#282938"/>
<path d="M110.789 17.4072C110.829 18.1873 110.718 18.9677 110.46 19.7036C110.202 20.4396 109.803 21.1166 109.287 21.6956C108.771 22.2746 108.146 22.7443 107.452 23.0775C106.756 23.4109 106.001 23.6012 105.233 23.6377C104.587 23.6735 103.941 23.5629 103.342 23.3138C102.744 23.0646 102.206 22.6834 101.771 22.1975V28.0287H98.2832V11.5058H101.771V12.6145C102.207 12.129 102.744 11.748 103.343 11.4992C103.941 11.2502 104.587 11.1398 105.233 11.1755C106.001 11.2118 106.756 11.4022 107.452 11.7354C108.147 12.0688 108.772 12.5385 109.288 13.1177C109.804 13.6969 110.203 14.3741 110.461 15.1102C110.719 15.8464 110.83 16.627 110.789 17.4072ZM107.302 17.4072C107.289 16.8549 107.115 16.3188 106.802 15.8662C106.491 15.4136 106.053 15.0646 105.547 14.8628C105.04 14.6609 104.486 14.6153 103.955 14.7316C103.423 14.8479 102.936 15.1209 102.556 15.5165C102.176 15.9121 101.919 16.4127 101.818 16.9557C101.718 17.4986 101.776 18.0598 101.987 18.5689C102.199 19.078 102.554 19.5126 103.007 19.8181C103.461 20.1236 103.993 20.2865 104.537 20.2864C104.91 20.3033 105.283 20.2398 105.631 20.1001C105.979 19.9604 106.293 19.7477 106.555 19.4758C106.816 19.2039 107.017 18.8791 107.146 18.5226C107.275 18.1661 107.328 17.7861 107.302 17.4072Z" fill="#282938"/>
<path d="M121.548 19.7666C121.548 22.4812 119.225 23.6377 116.715 23.6377C115.701 23.731 114.682 23.5132 113.791 23.0124C112.9 22.5117 112.177 21.7511 111.717 20.8288L114.737 19.0823C114.86 19.5085 115.122 19.8793 115.481 20.1328C115.841 20.3862 116.274 20.5069 116.71 20.4747C117.547 20.4747 117.965 20.2149 117.965 19.7439C117.965 18.4444 112.246 19.13 112.246 15.0466C112.246 12.4726 114.386 11.1754 116.803 11.1754C117.712 11.1463 118.612 11.3652 119.409 11.8093C120.206 12.2535 120.871 12.9065 121.335 13.7006L118.36 15.3291C118.229 15.0199 118.012 14.7567 117.735 14.572C117.458 14.3874 117.134 14.2895 116.803 14.2907C116.199 14.2907 115.826 14.5291 115.826 14.9512C115.83 16.2972 121.548 15.3995 121.548 19.7666Z" fill="#282938"/>
<path d="M134.289 11.5054V23.3083H130.802V22.1984C130.4 22.6881 129.889 23.074 129.312 23.3244C128.734 23.5747 128.106 23.6824 127.479 23.6385C125.131 23.6385 123.135 21.9396 123.135 18.7505V11.5054H126.622V18.2319C126.593 18.513 126.624 18.7971 126.714 19.0646C126.805 19.3321 126.951 19.5765 127.143 19.7808C127.336 19.985 127.569 20.1442 127.829 20.2473C128.088 20.3505 128.366 20.395 128.644 20.3778C129.923 20.3778 130.805 19.6232 130.805 17.947V11.5089L134.289 11.5054Z" fill="#282938"/>
<path d="M154.283 16.0612V23.3075H150.796V16.3676C150.796 15.1873 150.237 14.4327 149.122 14.4327C147.96 14.4327 147.308 15.2588 147.308 16.6514V23.3075H143.823V16.3676C143.823 15.1873 143.264 14.4327 142.148 14.4327C140.985 14.4327 140.335 15.2588 140.335 16.6514V23.3075H136.848V11.5046H140.335V12.5895C140.697 12.1082 141.171 11.7265 141.716 11.4793C142.26 11.2321 142.856 11.1273 143.45 11.1743C144.047 11.1447 144.641 11.2726 145.174 11.5454C145.708 11.8183 146.163 12.2269 146.495 12.7314C146.881 12.2036 147.393 11.7839 147.983 11.5116C148.572 11.2394 149.22 11.1233 149.865 11.1743C152.534 11.1755 154.283 13.1105 154.283 16.0612Z" fill="#282938"/>
<path d="M157.234 11.4325C158.663 11.4325 159.822 10.2561 159.822 8.80489C159.822 7.35368 158.663 6.17725 157.234 6.17725C155.806 6.17725 154.646 7.35368 154.646 8.80489C154.646 10.2561 155.806 11.4325 157.234 11.4325Z" fill="#282938"/>
</g>
<g clip-path="url(#clip1_802_403)">
<path d="M267.934 7.80615H271.053V22.968H267.934V7.80615Z" fill="#282938"/>
<path d="M272.797 17.7737C272.797 16.6828 273.118 15.6166 273.719 14.71C274.321 13.8035 275.175 13.0974 276.174 12.6814C277.173 12.2654 278.272 12.1582 279.332 12.3733C280.391 12.5885 281.364 13.1162 282.126 13.8898C282.888 14.6633 283.405 15.6478 283.612 16.7184C283.82 17.7891 283.707 18.8976 283.289 19.9037C282.871 20.9097 282.167 21.7678 281.265 22.3693C280.363 22.9708 279.305 23.2886 278.224 23.2824C277.507 23.288 276.797 23.1491 276.134 22.8739C275.471 22.5987 274.869 22.1926 274.363 21.6796C273.858 21.1665 273.459 20.5567 273.19 19.886C272.921 19.2153 272.788 18.4971 272.797 17.7737ZM280.615 17.7737C280.603 17.3035 280.454 16.8473 280.186 16.4622C279.918 16.0771 279.544 15.7803 279.11 15.6089C278.676 15.4374 278.201 15.399 277.746 15.4982C277.29 15.5975 276.873 15.8302 276.548 16.1671C276.223 16.5041 276.003 16.9304 275.917 17.3926C275.83 17.8548 275.881 18.3326 276.062 18.7661C276.243 19.1996 276.547 19.5696 276.935 19.8297C277.323 20.09 277.779 20.2288 278.245 20.229C278.562 20.2352 278.878 20.1753 279.171 20.0531C279.464 19.9307 279.73 19.7488 279.95 19.5183C280.171 19.2879 280.342 19.014 280.453 18.7138C280.564 18.4136 280.612 18.0936 280.595 17.7737H280.615Z" fill="#282938"/>
<path d="M295.993 12.5802V22.4538C295.993 25.9374 293.289 27.4168 290.555 27.4168C289.591 27.4967 288.623 27.3034 287.762 26.8585C286.9 26.4135 286.179 25.7348 285.679 24.8986L288.31 23.3667C288.523 23.8004 288.862 24.1582 289.282 24.3926C289.701 24.6269 290.182 24.7265 290.659 24.6783C290.963 24.716 291.272 24.6856 291.563 24.589C291.854 24.4924 292.12 24.3322 292.343 24.1196C292.565 23.9071 292.738 23.6476 292.85 23.3596C292.961 23.0716 293.009 22.7623 292.988 22.4538V21.499C292.625 21.9431 292.164 22.2958 291.643 22.5289C291.121 22.762 290.553 22.8692 289.983 22.8421C288.605 22.8421 287.283 22.2893 286.308 21.3054C285.333 20.3215 284.785 18.9871 284.785 17.5957C284.785 16.2043 285.333 14.8699 286.308 13.886C287.283 12.9021 288.605 12.3493 289.983 12.3493C290.553 12.3222 291.121 12.4294 291.643 12.6625C292.164 12.8956 292.625 13.2483 292.988 13.6924V12.6432L295.993 12.5802ZM292.988 17.5642C293.009 17.0622 292.88 16.5655 292.619 16.1377C292.358 15.7101 291.976 15.371 291.522 15.1642C291.068 14.9574 290.564 14.8924 290.073 14.9774C289.582 15.0624 289.128 15.2935 288.769 15.6412C288.409 15.9888 288.161 16.437 288.056 16.9281C287.951 17.4193 287.994 17.9309 288.179 18.3972C288.365 18.8635 288.684 19.2631 289.096 19.5447C289.509 19.8263 289.995 19.9771 290.493 19.9776C290.818 20.0011 291.144 19.9557 291.45 19.8442C291.757 19.7327 292.036 19.5576 292.271 19.3302C292.507 19.1027 292.692 18.8281 292.815 18.5239C292.939 18.2197 292.998 17.8928 292.988 17.5642Z" fill="#282938"/>
<path d="M297.75 17.7738C297.75 16.6838 298.071 15.6184 298.671 14.7123C299.271 13.8061 300.124 13.1001 301.122 12.6835C302.12 12.2668 303.218 12.1583 304.277 12.3718C305.336 12.5852 306.309 13.1109 307.072 13.8823C307.835 14.6538 308.354 15.6363 308.563 16.7055C308.772 17.7748 308.663 18.8827 308.248 19.8891C307.833 20.8955 307.132 21.7551 306.233 22.3591C305.334 22.9632 304.278 23.2845 303.198 23.2825C302.48 23.2894 301.767 23.1517 301.103 22.8772C300.438 22.6027 299.834 22.1971 299.327 21.684C298.819 21.1709 298.418 20.5608 298.148 19.8893C297.877 19.2179 297.742 18.4986 297.75 17.7738ZM305.568 17.7738C305.556 17.303 305.407 16.8464 305.138 16.4612C304.87 16.076 304.495 15.7791 304.06 15.608C303.626 15.4369 303.151 15.399 302.695 15.4991C302.239 15.5993 301.822 15.833 301.497 16.171C301.173 16.509 300.954 16.9362 300.869 17.3991C300.783 17.8621 300.835 18.3402 301.018 18.7735C301.2 19.2067 301.506 19.576 301.895 19.8349C302.285 20.0939 302.742 20.231 303.208 20.2291C303.526 20.2353 303.841 20.1754 304.134 20.0532C304.428 19.9308 304.693 19.7488 304.914 19.5183C305.134 19.2879 305.305 19.0141 305.416 18.7139C305.527 18.4137 305.575 18.0937 305.558 17.7738H305.568Z" fill="#282938"/>
<path d="M310.09 9.79979C310.09 9.43039 310.198 9.06937 310.402 8.76217C310.605 8.45505 310.894 8.21562 311.232 8.0743C311.57 7.93294 311.942 7.89595 312.301 7.96802C312.66 8.04008 312.99 8.218 313.249 8.47917C313.508 8.74034 313.684 9.07314 313.755 9.43548C313.827 9.79774 313.79 10.1733 313.65 10.5145C313.51 10.8559 313.273 11.1476 312.969 11.3528C312.664 11.558 312.306 11.6675 311.94 11.6675C311.451 11.6621 310.984 11.4635 310.638 11.1144C310.292 10.7654 310.095 10.2935 310.09 9.79979ZM310.391 12.5804H313.51V22.9681H310.391V12.5804Z" fill="#282938"/>
<path d="M326.859 17.7733C326.894 18.4642 326.794 19.1552 326.563 19.8065C326.332 20.4579 325.976 21.0569 325.515 21.5688C325.054 22.0808 324.497 22.4958 323.877 22.7898C323.257 23.0838 322.585 23.2511 321.9 23.282C321.319 23.321 320.737 23.2271 320.197 23.0073C319.657 22.7874 319.173 22.4474 318.781 22.0124V27.1433H315.662V12.5795H318.781V13.5553C319.173 13.1217 319.658 12.7831 320.198 12.565C320.737 12.347 321.32 12.2551 321.9 12.2961C322.582 12.3272 323.251 12.4934 323.87 12.7855C324.488 13.0775 325.043 13.4896 325.503 13.9982C325.964 14.5068 326.321 15.102 326.553 15.7497C326.786 16.3975 326.889 17.0851 326.859 17.7733ZM323.74 17.7733C323.728 17.286 323.573 16.8131 323.296 16.4141C323.018 16.015 322.631 15.7075 322.181 15.53C321.73 15.3526 321.239 15.313 320.767 15.4164C320.295 15.5198 319.863 15.7615 319.527 16.1112C319.191 16.461 318.964 16.9032 318.875 17.3823C318.787 17.8616 318.84 18.3565 319.029 18.8052C319.219 19.2538 319.534 19.6361 319.938 19.9043C320.341 20.1725 320.814 20.3144 321.297 20.3126C321.628 20.3267 321.958 20.2701 322.265 20.1466C322.573 20.023 322.851 19.8351 323.082 19.5953C323.313 19.3556 323.491 19.0693 323.604 18.7553C323.717 18.4414 323.764 18.1067 323.74 17.7733Z" fill="#282938"/>
<path d="M336.351 19.8517C336.351 22.2441 334.272 23.2619 332.068 23.2619C331.169 23.3435 330.266 23.1512 329.476 22.7098C328.687 22.2683 328.047 21.5981 327.639 20.7856L330.321 19.2537C330.427 19.6281 330.658 19.9543 330.974 20.1777C331.29 20.4012 331.672 20.5084 332.057 20.4813C332.795 20.4813 333.17 20.2505 333.17 19.8307C333.17 18.6871 328.106 19.2957 328.106 15.6967C328.106 13.4302 329.999 12.297 332.141 12.297C332.955 12.2603 333.764 12.4466 334.481 12.8364C335.198 13.2263 335.798 13.8049 336.216 14.511L333.533 15.938C333.415 15.6673 333.221 15.4371 332.976 15.275C332.73 15.113 332.444 15.0262 332.151 15.0252C331.611 15.0252 331.288 15.235 331.288 15.6022C331.288 16.7984 336.351 16.0114 336.351 19.8517Z" fill="#282938"/>
<path d="M347.652 12.5801V22.9679H344.533V21.992C344.179 22.4239 343.729 22.7658 343.219 22.99C342.711 23.2142 342.156 23.3144 341.601 23.2826C339.522 23.2826 337.744 21.7822 337.744 18.9807V12.5801H340.863V18.5084C340.839 18.7563 340.868 19.0066 340.948 19.242C341.029 19.4774 341.16 19.6923 341.33 19.8718C341.501 20.0514 341.709 20.1914 341.939 20.2821C342.169 20.3728 342.416 20.412 342.661 20.3971C343.785 20.3971 344.574 19.7256 344.574 18.2986V12.5801H347.652Z" fill="#282938"/>
<path d="M365.326 16.5883V22.9679H362.207V16.8612C362.207 15.8119 361.718 15.1614 360.73 15.1614C359.742 15.1614 359.119 15.8853 359.119 17.113V22.9679H356V16.8612C356 15.8119 355.512 15.1614 354.523 15.1614C353.536 15.1614 352.912 15.8853 352.912 17.113V22.9679H349.793V12.5801H352.912V13.535C353.235 13.1131 353.657 12.7791 354.14 12.5629C354.623 12.3468 355.151 12.2553 355.678 12.2968C356.205 12.2691 356.731 12.3802 357.203 12.6193C357.674 12.8585 358.077 13.2174 358.37 13.6609C358.712 13.1976 359.166 12.8295 359.688 12.5909C360.21 12.3524 360.783 12.2512 361.354 12.2968C363.787 12.2968 365.326 13.9967 365.326 16.5883Z" fill="#282938"/>
<path d="M249.355 5.07804V0.618652H235.424V31.2572H249.355V26.7978C246.501 26.7978 243.764 25.6537 241.746 23.617C239.728 21.5804 238.595 18.8182 238.595 15.9379C238.595 13.0577 239.728 10.2954 241.746 8.25885C243.764 6.2222 246.501 5.07804 249.355 5.07804Z" fill="#282938"/>
<path d="M249.354 5.07764V26.7974C252.207 26.7974 254.944 25.6533 256.962 23.6166C258.98 21.5801 260.114 18.8178 260.114 15.9375C260.114 13.0573 258.98 10.295 256.962 8.25845C254.944 6.2218 252.207 5.07764 249.354 5.07764Z" fill="#282938"/>
<path d="M367.946 12.5177C369.209 12.5177 370.233 11.4841 370.233 10.2093C370.233 8.93439 369.209 7.90088 367.946 7.90088C366.682 7.90088 365.658 8.93439 365.658 10.2093C365.658 11.4841 366.682 12.5177 367.946 12.5177Z" fill="#282938"/>
</g>
<g clip-path="url(#clip2_802_403)">
<path d="M483.303 9.3468H486.684V23.0049H483.303V9.3468ZM488.025 17.8479C488.025 14.47 490.099 12.4545 493.3 12.4545C496.5 12.4545 498.574 14.47 498.574 17.8479C498.574 21.2259 496.546 23.2527 493.3 23.2527C490.054 23.2527 488.025 21.2822 488.025 17.8479ZM495.182 17.8479C495.182 15.9901 494.449 14.8979 493.3 14.8979C492.15 14.8979 491.429 16.0239 491.429 17.8479C491.429 19.672 492.139 20.7755 493.3 20.7755C494.46 20.7755 495.182 19.7396 495.182 17.8592V17.8479ZM499.848 23.6693H503.094C503.248 24.0121 503.509 24.296 503.838 24.4786C504.167 24.6612 504.547 24.7328 504.92 24.6826C506.204 24.6826 506.881 23.9846 506.881 22.9712V21.0795H506.813C506.544 21.6593 506.106 22.1451 505.558 22.4743C505.01 22.8034 504.375 22.9608 503.736 22.9262C501.268 22.9262 499.634 21.0457 499.634 17.8142C499.634 14.5826 501.189 12.5446 503.781 12.5446C504.44 12.5188 505.091 12.6948 505.647 13.0489C506.203 13.4032 506.637 13.9186 506.892 14.5263V12.6459H510.273V22.8923C510.273 25.3583 508.098 26.8896 504.886 26.8896C501.899 26.8896 500.039 25.5496 499.848 23.6806V23.6693ZM506.892 17.8367C506.892 16.1928 506.137 15.1568 504.942 15.1568C503.747 15.1568 503.015 16.1815 503.015 17.8367C503.015 19.4919 503.736 20.4264 504.942 20.4264C506.148 20.4264 506.892 19.5144 506.892 17.8479V17.8367ZM511.547 17.8367C511.547 14.4587 513.62 12.4432 516.821 12.4432C520.022 12.4432 522.107 14.4587 522.107 17.8367C522.107 21.2146 520.078 23.2414 516.821 23.2414C513.564 23.2414 511.547 21.2822 511.547 17.8479V17.8367ZM518.703 17.8367C518.703 15.9788 517.971 14.8866 516.821 14.8866C515.672 14.8866 515.007 16.0239 515.007 17.8592C515.007 19.6945 515.717 20.7868 516.866 20.7868C518.016 20.7868 518.703 19.7396 518.703 17.8592V17.8367ZM523.392 10.1912C523.383 9.85026 523.476 9.51426 523.658 9.22591C523.841 8.93755 524.105 8.70978 524.417 8.57156C524.729 8.43333 525.076 8.39083 525.412 8.44944C525.748 8.50806 526.06 8.66514 526.307 8.90075C526.554 9.13639 526.725 9.44004 526.799 9.77311C526.873 10.1061 526.847 10.4536 526.723 10.7716C526.599 11.0895 526.383 11.3635 526.103 11.5589C525.823 11.7543 525.492 11.8622 525.15 11.869C524.924 11.8845 524.697 11.8531 524.483 11.7768C524.269 11.7005 524.074 11.5808 523.909 11.4254C523.744 11.2699 523.613 11.0821 523.524 10.8736C523.435 10.665 523.39 10.4404 523.392 10.2138V10.1912ZM523.392 12.6684H526.773V23.0049H523.392V12.6684ZM539.047 17.8367C539.047 21.2146 537.548 23.14 534.978 23.14C534.319 23.1824 533.663 23.0214 533.099 22.6791C532.534 22.3368 532.089 21.8295 531.822 21.2259H531.755V26.3153H528.373V12.6459H531.755V14.4925H531.822C532.076 13.879 532.513 13.3585 533.074 13.0019C533.635 12.6454 534.292 12.4699 534.955 12.4995C537.548 12.5446 539.091 14.4813 539.091 17.8592L539.047 17.8367ZM535.666 17.8367C535.666 16.1928 534.91 15.1456 533.727 15.1456C532.544 15.1456 531.788 16.204 531.777 17.8367C531.766 19.4694 532.544 20.5166 533.727 20.5166C534.91 20.5166 535.666 19.4919 535.666 17.8592V17.8367ZM544.851 12.432C547.657 12.432 549.359 13.7607 549.438 15.8888H546.361C546.361 15.1568 545.753 14.6952 544.817 14.6952C543.881 14.6952 543.465 15.0555 543.465 15.5848C543.465 16.1139 543.837 16.2828 544.592 16.4405L546.755 16.8796C548.819 17.3187 549.697 18.152 549.697 19.7171C549.697 21.8565 547.747 23.2302 544.873 23.2302C541.999 23.2302 540.117 21.8565 539.971 19.7509H543.228C543.33 20.5166 543.938 20.9669 544.93 20.9669C545.921 20.9669 546.373 20.6404 546.373 20.1C546.373 19.5594 546.057 19.4469 545.246 19.2779L543.296 18.8614C541.278 18.4448 540.219 17.3751 540.219 15.7987C540.242 13.7719 542.056 12.4545 544.851 12.4545V12.432ZM560.979 22.9824H557.721V21.057H557.654C557.475 21.7034 557.08 22.2693 556.535 22.6605C555.99 23.0517 555.327 23.2448 554.656 23.2076C554.142 23.2368 553.629 23.1555 553.149 22.9692C552.67 22.7828 552.235 22.4959 551.877 22.1276C551.518 21.7593 551.242 21.3184 551.068 20.8345C550.894 20.3507 550.827 19.8352 550.869 19.323V12.6459H554.251V18.5461C554.251 19.7734 554.882 20.4264 555.93 20.4264C556.176 20.427 556.419 20.375 556.642 20.2739C556.867 20.1729 557.067 20.0253 557.229 19.8408C557.391 19.6563 557.512 19.4393 557.583 19.2044C557.655 18.9695 557.675 18.7219 557.643 18.4785V12.6459H561.025L560.979 22.9824ZM562.613 12.6459H565.882V14.6389H565.949C566.129 14.001 566.515 13.4406 567.047 13.0453C567.579 12.65 568.228 12.4423 568.891 12.4545C569.566 12.4006 570.236 12.6023 570.769 13.0195C571.301 13.4368 571.657 14.0391 571.765 14.7064H571.833C572.037 14.032 572.46 13.4446 573.036 13.0368C573.612 12.6291 574.306 12.4242 575.011 12.4545C575.47 12.4391 575.929 12.5205 576.355 12.6934C576.781 12.8663 577.166 13.1269 577.485 13.4582C577.804 13.7896 578.05 14.1842 578.206 14.6165C578.362 15.0488 578.425 15.5091 578.392 15.9676V23.0049H575.011V16.8683C575.011 15.7424 574.503 15.2244 573.557 15.2244C573.346 15.2226 573.136 15.2661 572.944 15.3519C572.751 15.4377 572.579 15.5638 572.439 15.7217C572.299 15.8797 572.195 16.0658 572.133 16.2675C572.071 16.4691 572.053 16.6817 572.08 16.8909V23.0049H568.869V16.8233C568.869 15.7874 568.362 15.2244 567.437 15.2244C567.224 15.2245 567.013 15.2698 566.818 15.3573C566.624 15.4448 566.449 15.5727 566.307 15.7322C566.166 15.8919 566.06 16.0796 565.996 16.2832C565.933 16.4868 565.913 16.7016 565.938 16.9134V23.0049H562.557L562.613 12.6459Z" fill="#282938"/>
<path d="M473.847 9.96624C473.273 8.65605 472.514 7.435 471.592 6.34062C470.23 4.67455 468.531 3.31555 466.605 2.35308C464.679 1.39061 462.571 0.846471 460.42 0.756497C458.269 0.666522 456.123 1.03274 454.123 1.83105C452.124 2.62937 450.316 3.84167 448.819 5.38819C447.323 6.93469 446.171 8.78034 445.44 10.8037C444.708 12.827 444.414 14.9821 444.577 17.1271C444.739 19.2721 445.354 21.3585 446.382 23.2488C447.41 25.1392 448.827 26.7907 450.539 28.0946C451.638 28.9479 452.852 29.6417 454.146 30.1551C455.959 30.8976 457.9 31.28 459.86 31.2811C463.905 31.2722 467.782 29.6612 470.641 26.8012C473.499 23.9413 475.106 20.0657 475.109 16.024C475.112 13.9393 474.682 11.8766 473.847 9.96624ZM459.849 3.8522C461.609 3.85201 463.347 4.23631 464.943 4.97818C464.554 5.14614 464.145 5.26345 463.726 5.32724C462.347 5.52664 461.069 6.16618 460.084 7.15039C459.099 8.13461 458.459 9.41069 458.259 10.7883C458.172 11.5608 457.82 12.2795 457.264 12.8231C456.707 13.3667 455.98 13.7019 455.205 13.7721C453.826 13.9715 452.549 14.611 451.564 15.5952C450.579 16.5795 449.939 17.8556 449.739 19.2331C449.671 19.9677 449.358 20.658 448.849 21.1923C447.97 19.3382 447.576 17.2921 447.702 15.2446C447.827 13.1971 448.47 11.2147 449.569 9.4818C450.668 7.749 452.188 6.32206 453.987 5.33382C455.786 4.34558 457.807 3.82814 459.86 3.82968L459.849 3.8522ZM450.528 23.906C450.663 23.7821 450.798 23.6694 450.934 23.5343C451.936 22.5631 452.58 21.2811 452.759 19.8974C452.832 19.1197 453.18 18.3932 453.74 17.8481C454.279 17.2876 455.004 16.9432 455.78 16.8798C457.159 16.6804 458.436 16.0408 459.421 15.0566C460.406 14.0725 461.047 12.7963 461.246 11.4188C461.295 10.6053 461.644 9.83886 462.227 9.2682C462.779 8.71853 463.511 8.38664 464.289 8.3336C465.556 8.15949 466.737 7.59689 467.67 6.72345C468.733 7.60405 469.633 8.66341 470.33 9.85371C470.287 9.91149 470.238 9.96437 470.184 10.0113C469.646 10.5768 468.921 10.9287 468.144 11.0022C466.763 11.1981 465.484 11.8366 464.498 12.8214C463.513 13.8062 462.874 15.0843 462.677 16.4632C462.598 17.2383 462.253 17.9622 461.7 18.5122C461.148 19.0622 460.422 19.4044 459.646 19.4808C458.263 19.6787 456.981 20.317 455.99 21.3008C454.999 22.2846 454.352 23.5615 454.146 24.9418C454.085 25.4921 453.896 26.0206 453.593 26.4845C452.437 25.7985 451.401 24.9274 450.528 23.906ZM459.849 28.2522C458.705 28.2534 457.567 28.0942 456.467 27.7793C456.844 27.079 457.088 26.3157 457.189 25.5273C457.268 24.7539 457.611 24.0314 458.162 23.4816C458.712 22.9319 459.435 22.5886 460.209 22.5097C461.59 22.3126 462.87 21.674 463.857 20.6896C464.845 19.7052 465.487 18.4278 465.687 17.0487C465.766 16.2753 466.109 15.5527 466.66 15.003C467.21 14.4533 467.933 14.11 468.707 14.031C469.746 13.896 470.737 13.5095 471.592 12.9051C472.068 14.7043 472.124 16.5884 471.757 18.4126C471.39 20.237 470.61 21.9531 469.476 23.4294C468.342 24.9056 466.885 26.1029 465.216 26.9291C463.547 27.7553 461.711 28.1887 459.849 28.1959V28.2522Z" fill="#282938"/>
</g>
<g clip-path="url(#clip3_802_403)">
<path d="M701.372 25.4924C700.601 25.5342 699.839 25.3151 699.208 24.8707C698.944 24.6754 698.732 24.4189 698.59 24.1233C698.447 23.8276 698.379 23.5019 698.391 23.1741V11.1682C698.385 11.1173 698.39 11.0657 698.407 11.0173C698.424 10.9689 698.451 10.9249 698.487 10.8887C698.524 10.8525 698.568 10.825 698.616 10.8083C698.665 10.7917 698.716 10.7863 698.767 10.7926H700.945C701.191 10.7926 701.307 10.9221 701.307 11.1682V22.2416C701.307 22.7338 701.528 22.9798 701.981 22.9798C702.174 22.9878 702.366 22.9659 702.552 22.9151C702.811 22.9151 702.953 22.9928 702.966 23.2259L703.161 24.8448C703.17 24.892 703.169 24.9407 703.158 24.9875C703.147 25.0344 703.126 25.0782 703.097 25.1163C703.067 25.1543 703.03 25.1857 702.987 25.2081C702.945 25.2305 702.898 25.2436 702.85 25.2464C702.373 25.4038 701.874 25.4868 701.372 25.4924Z" fill="#282938"/>
<path d="M713.621 24.1067C712.527 25.01 711.152 25.5042 709.733 25.5042C708.314 25.5042 706.939 25.01 705.845 24.1067C704.883 23.1366 704.344 21.8263 704.344 20.4609C704.344 19.0954 704.883 17.7851 705.845 16.815C706.941 15.9164 708.315 15.4253 709.733 15.4253C711.151 15.4253 712.525 15.9164 713.621 16.815C714.561 17.7941 715.085 19.098 715.085 20.4545C715.085 21.8108 714.561 23.1147 713.621 24.0938V24.1067ZM707.893 22.3971C708.4 22.8567 709.061 23.1113 709.746 23.1113C710.431 23.1113 711.092 22.8567 711.599 22.3971C712.059 21.8692 712.312 21.1929 712.312 20.4933C712.312 19.7935 712.059 19.1174 711.599 18.5894C711.092 18.1298 710.431 17.8753 709.746 17.8753C709.061 17.8753 708.4 18.1298 707.893 18.5894C707.433 19.1174 707.18 19.7935 707.18 20.4933C707.18 21.1929 707.433 21.8692 707.893 22.3971Z" fill="#282938"/>
<path d="M727.075 15.7527C727.321 15.7527 727.438 15.8822 727.438 16.1283V25.4144C727.46 26.0412 727.343 26.6651 727.094 27.2409C726.845 27.8167 726.471 28.3297 725.999 28.7429C724.951 29.636 723.603 30.0987 722.227 30.0381C720.985 30.0818 719.758 29.7427 718.715 29.0668C718.269 28.7743 717.889 28.3935 717.597 27.9479C717.305 27.5024 717.107 27.0015 717.017 26.4765C717.017 26.2174 717.017 26.1009 717.367 26.1009H719.545C719.637 26.1041 719.727 26.1338 719.802 26.1867C719.878 26.2395 719.937 26.3132 719.972 26.3988C720.113 26.7922 720.395 27.1196 720.763 27.3183C721.211 27.5494 721.71 27.6652 722.214 27.655C722.519 27.6718 722.823 27.6276 723.11 27.5253C723.397 27.423 723.661 27.2646 723.886 27.0593C724.092 26.8445 724.252 26.5904 724.357 26.3121C724.461 26.0339 724.509 25.7373 724.496 25.4403V24.6244C723.716 25.1974 722.767 25.4937 721.8 25.4662C721.123 25.4909 720.448 25.3785 719.815 25.1359C719.183 24.8933 718.606 24.5256 718.119 24.0545C717.184 23.0885 716.662 21.7976 716.662 20.4541C716.662 19.1105 717.184 17.8196 718.119 16.8536C718.608 16.3868 719.186 16.0225 719.818 15.7823C720.45 15.5421 721.124 15.4307 721.8 15.4549C722.795 15.4286 723.769 15.744 724.56 16.3485V16.1412C724.554 16.0917 724.56 16.0413 724.576 15.9939C724.591 15.9466 724.618 15.9033 724.653 15.8674C724.687 15.8314 724.73 15.8036 724.776 15.786C724.823 15.7684 724.873 15.7615 724.923 15.7657L727.075 15.7527ZM722.046 23.1609C722.38 23.1712 722.712 23.1082 723.019 22.9761C723.326 22.8441 723.6 22.6463 723.822 22.3968C724.252 21.8408 724.486 21.1574 724.486 20.4541C724.486 19.7508 724.252 19.0675 723.822 18.5114C723.6 18.2652 723.328 18.0704 723.024 17.9407C722.719 17.8109 722.39 17.7493 722.059 17.7602C721.721 17.7496 721.385 17.8125 721.074 17.9444C720.763 18.0763 720.484 18.2742 720.257 18.5243C719.78 19.0562 719.529 19.7531 719.558 20.467C719.534 21.1739 719.78 21.8635 720.244 22.3968C720.472 22.6462 720.751 22.8437 721.062 22.9756C721.373 23.1074 721.708 23.1707 722.046 23.1609Z" fill="#282938"/>
<path d="M738.621 24.1059C737.524 25.0045 736.15 25.4956 734.732 25.4956C733.314 25.4956 731.94 25.0045 730.844 24.1059C729.904 23.1246 729.379 21.8186 729.379 20.4601C729.379 19.1015 729.904 17.7954 730.844 16.8142C731.941 15.9179 733.315 15.4282 734.732 15.4282C736.15 15.4282 737.523 15.9179 738.621 16.8142C739.56 17.7932 740.085 19.0972 740.085 20.4536C740.085 21.81 739.56 23.1139 738.621 24.0929V24.1059ZM732.879 22.3963C733.128 22.6325 733.42 22.817 733.741 22.9393C734.061 23.0616 734.403 23.1192 734.745 23.1086C735.086 23.1174 735.425 23.0591 735.743 22.9369C736.061 22.8145 736.352 22.6309 736.599 22.3963C737.051 21.8648 737.299 21.19 737.299 20.4924C737.299 19.7949 737.051 19.1201 736.599 18.5886C736.352 18.354 736.061 18.1703 735.743 18.048C735.425 17.9258 735.086 17.8674 734.745 17.8762C734.403 17.8657 734.061 17.9233 733.741 18.0455C733.42 18.1678 733.128 18.3524 732.879 18.5886C732.427 19.1201 732.179 19.7949 732.179 20.4924C732.179 21.19 732.427 21.8648 732.879 22.3963Z" fill="#282938"/>
<path d="M744.764 13.5513C744.422 13.851 743.982 14.0161 743.526 14.0161C743.071 14.0161 742.631 13.851 742.289 13.5513C742.133 13.4048 742.01 13.2281 741.925 13.0322C741.841 12.8362 741.797 12.625 741.797 12.4116C741.797 12.1981 741.841 11.9869 741.925 11.791C742.01 11.595 742.133 11.4184 742.289 11.2719C742.635 10.9796 743.073 10.8193 743.526 10.8193C743.98 10.8193 744.418 10.9796 744.764 11.2719C744.92 11.4184 745.043 11.595 745.128 11.791C745.212 11.9869 745.256 12.1981 745.256 12.4116C745.256 12.625 745.212 12.8362 745.128 13.0322C745.043 13.2281 744.92 13.4048 744.764 13.5513ZM745.036 25.4925C744.266 25.5303 743.505 25.3116 742.872 24.8707C742.612 24.6726 742.404 24.4151 742.264 24.12C742.124 23.8249 742.057 23.5005 742.068 23.1741V16.1287C742.062 16.0778 742.068 16.0261 742.084 15.9777C742.101 15.9293 742.128 15.8853 742.165 15.8491C742.201 15.8129 742.245 15.7854 742.293 15.7687C742.342 15.7521 742.393 15.7467 742.444 15.753H744.622C744.868 15.753 744.985 15.8826 744.985 16.1287V22.2417C744.985 22.7338 745.205 22.9799 745.646 22.9799C745.842 22.987 746.039 22.9651 746.229 22.9151C746.488 22.9151 746.631 22.9929 746.644 23.2259L746.838 24.8449C746.847 24.8921 746.846 24.9407 746.835 24.9876C746.824 25.0344 746.803 25.0783 746.774 25.1163C746.744 25.1544 746.707 25.1857 746.665 25.2081C746.622 25.2306 746.575 25.2436 746.527 25.2464C746.046 25.4047 745.543 25.4877 745.036 25.4925Z" fill="#282938"/>
<path d="M754.849 15.4419C755.53 15.4151 756.208 15.5251 756.845 15.7653C757.482 16.0056 758.063 16.3714 758.556 16.8407C759.473 17.8237 759.983 19.1172 759.983 20.4607C759.983 21.804 759.473 23.0977 758.556 24.0806C758.067 24.5541 757.485 24.9233 756.848 25.166C756.211 25.4086 755.531 25.5197 754.849 25.4922C753.879 25.5138 752.928 25.2182 752.141 24.6504V29.3258C752.141 29.5719 752.011 29.6885 751.765 29.6885H749.588C749.538 29.6977 749.487 29.6948 749.438 29.6799C749.39 29.6649 749.346 29.6385 749.31 29.6028C749.275 29.567 749.248 29.5232 749.233 29.4749C749.218 29.4267 749.215 29.3755 749.225 29.3258V18.7057C749.24 18.6019 749.231 18.4959 749.198 18.3962C749.165 18.2965 749.109 18.2059 749.034 18.1317C748.96 18.0575 748.87 18.0016 748.77 17.9686C748.67 17.9356 748.564 17.9264 748.46 17.9415H748.032C747.747 17.9415 747.605 17.838 747.605 17.6307V16.1025C747.598 16.0079 747.624 15.9139 747.678 15.8362C747.732 15.7583 747.812 15.7015 747.903 15.6751C748.351 15.5122 748.825 15.4333 749.302 15.4419C749.778 15.3999 750.255 15.5007 750.673 15.7314C751.091 15.9622 751.431 16.3123 751.648 16.7371C752.066 16.3151 752.565 15.9826 753.115 15.76C753.666 15.5372 754.256 15.429 754.849 15.4419ZM752.828 22.3969C753.059 22.6382 753.336 22.8303 753.644 22.9615C753.951 23.0927 754.282 23.1603 754.616 23.1603C754.951 23.1603 755.282 23.0927 755.589 22.9615C755.896 22.8303 756.174 22.6382 756.405 22.3969C756.892 21.8543 757.148 21.1434 757.118 20.4154C757.152 19.6866 756.895 18.9741 756.405 18.4337C756.174 18.1924 755.896 18.0003 755.589 17.8691C755.282 17.7379 754.951 17.6703 754.616 17.6703C754.282 17.6703 753.951 17.7379 753.644 17.8691C753.336 18.0003 753.059 18.1924 752.828 18.4337C752.356 18.9836 752.111 19.6917 752.141 20.4154C752.115 21.1383 752.36 21.845 752.828 22.3969Z" fill="#282938"/>
<path d="M766.098 25.4921C764.935 25.5399 763.781 25.2618 762.767 24.6891C762.36 24.4443 762.014 24.1111 761.753 23.7142C761.494 23.3174 761.326 22.8672 761.264 22.3968C761.264 22.1377 761.355 22.0082 761.64 22.0082H763.545C763.636 22.0117 763.724 22.0402 763.799 22.0905C763.875 22.1408 763.934 22.2109 763.972 22.2931C764.245 22.9925 764.957 23.3422 766.098 23.3422C766.496 23.3604 766.892 23.2803 767.252 23.109C767.375 23.0531 767.482 22.9645 767.56 22.8527C767.637 22.7409 767.684 22.6102 767.693 22.4745C767.693 22.1377 767.485 21.9046 767.07 21.7491C766.579 21.5855 766.069 21.4769 765.554 21.4254C764.943 21.3562 764.337 21.2481 763.739 21.1016C763.158 20.9702 762.63 20.6679 762.223 20.2339C761.983 19.9387 761.807 19.5976 761.704 19.2313C761.602 18.8652 761.576 18.4819 761.628 18.1054C761.681 17.7288 761.81 17.367 762.008 17.0424C762.206 16.7179 762.469 16.4376 762.78 16.2189C763.715 15.6242 764.81 15.3346 765.916 15.39C766.988 15.3539 768.048 15.6185 768.975 16.1542C769.349 16.3658 769.671 16.6582 769.918 17.0099C770.164 17.3617 770.33 17.764 770.402 18.1875C770.402 18.4465 770.284 18.5761 770.051 18.5761H768.133C768.052 18.5808 767.972 18.5612 767.902 18.5196C767.833 18.478 767.778 18.4164 767.744 18.343C767.616 18.0362 767.374 17.7904 767.07 17.6565C766.726 17.4769 766.343 17.3878 765.955 17.3975C765.575 17.3769 765.196 17.4526 764.854 17.6177C764.733 17.6643 764.63 17.7458 764.556 17.852C764.482 17.9583 764.441 18.0841 764.44 18.2134C764.448 18.3906 764.513 18.5604 764.625 18.6979C764.736 18.8354 764.889 18.9334 765.061 18.9776C765.559 19.165 766.076 19.2953 766.603 19.3662C767.21 19.4458 767.811 19.5583 768.405 19.7029C768.987 19.8342 769.514 20.1364 769.922 20.5706C770.14 20.8098 770.308 21.0897 770.417 21.3942C770.526 21.6987 770.573 22.0219 770.557 22.3449C770.568 22.7926 770.463 23.2356 770.252 23.6305C770.04 24.0256 769.73 24.359 769.351 24.5985C768.383 25.2197 767.248 25.5314 766.098 25.4921Z" fill="#282938"/>
<path d="M784.257 24.8449C784.264 24.8908 784.262 24.9379 784.252 24.9831C784.241 25.0283 784.22 25.0708 784.192 25.1083C784.165 25.1457 784.13 25.1771 784.09 25.2009C784.05 25.2245 784.005 25.24 783.959 25.2463C783.486 25.4007 782.992 25.4836 782.495 25.4924C782.002 25.5434 781.504 25.4665 781.05 25.269C780.596 25.0716 780.201 24.7605 779.902 24.3657C778.987 25.1522 777.803 25.5558 776.598 25.4924C776.037 25.5182 775.478 25.4266 774.956 25.2237C774.434 25.0206 773.96 24.7108 773.564 24.3139C773.172 23.8979 772.867 23.4071 772.669 22.8708C772.471 22.3344 772.384 21.7636 772.411 21.1925V16.1286C772.411 15.8825 772.527 15.7529 772.774 15.7529H774.952C775.197 15.7529 775.314 15.8825 775.314 16.1286V20.804C775.291 21.3865 775.49 21.9562 775.872 22.3971C776.062 22.599 776.294 22.7578 776.55 22.8628C776.808 22.9678 777.084 23.0165 777.362 23.0058C777.646 23.0182 777.93 22.9742 778.197 22.8764C778.463 22.7786 778.709 22.6289 778.917 22.4359C779.115 22.2325 779.269 21.9908 779.369 21.7257C779.469 21.4606 779.514 21.1778 779.501 20.8947V16.1286C779.501 15.8825 779.617 15.7529 779.863 15.7529H782.067C782.313 15.7529 782.429 15.8825 782.429 16.1286V22.2287C782.429 22.7338 782.65 22.9799 783.078 22.9799C783.278 22.9876 783.48 22.9658 783.674 22.915C783.723 22.9013 783.774 22.8989 783.825 22.9079C783.875 22.9169 783.922 22.937 783.963 22.967C784.004 22.9969 784.038 23.0357 784.062 23.0806C784.086 23.1254 784.1 23.1751 784.102 23.226L784.257 24.8449Z" fill="#282938"/>
<path d="M804.851 24.8452C804.862 24.8915 804.863 24.9399 804.854 24.9868C804.844 25.0336 804.825 25.0778 804.796 25.1162C804.767 25.1546 804.732 25.1862 804.689 25.2087C804.647 25.2313 804.6 25.2442 804.553 25.2467C804.071 25.4032 803.568 25.4862 803.062 25.4927C802.292 25.5324 801.53 25.3137 800.897 24.8711C800.624 24.6814 800.402 24.4274 800.25 24.1314C800.099 23.8355 800.023 23.5068 800.03 23.1744V20.1308C800.056 19.5501 799.862 18.9807 799.484 18.5378C799.303 18.3354 799.079 18.1758 798.827 18.0705C798.577 17.9653 798.306 17.917 798.033 17.9291C797.788 17.9198 797.544 17.9664 797.32 18.0651C797.095 18.1638 796.896 18.3122 796.738 18.499C796.395 18.933 796.22 19.4753 796.245 20.0273V24.8063C796.245 25.0524 796.128 25.1819 795.882 25.1819H793.691C793.641 25.1882 793.589 25.1828 793.54 25.1662C793.492 25.1496 793.448 25.122 793.412 25.0859C793.376 25.0496 793.348 25.0056 793.331 24.9571C793.314 24.9087 793.309 24.8571 793.315 24.8063V20.1308C793.344 19.5565 793.164 18.991 792.81 18.5378C792.652 18.3475 792.454 18.1942 792.23 18.089C792.006 17.9838 791.761 17.9292 791.514 17.9291C791.249 17.9185 790.986 17.9637 790.74 18.0619C790.494 18.1601 790.273 18.3091 790.089 18.499C789.718 18.9192 789.527 19.4679 789.557 20.0273V24.8063C789.563 24.8571 789.558 24.9087 789.541 24.9571C789.524 25.0056 789.497 25.0496 789.46 25.0859C789.424 25.122 789.38 25.1496 789.332 25.1662C789.284 25.1828 789.232 25.1882 789.181 25.1819H787.069C786.822 25.1819 786.705 25.0524 786.705 24.8063V18.7062C786.721 18.6024 786.711 18.4964 786.679 18.3966C786.646 18.297 786.589 18.2064 786.515 18.1322C786.441 18.058 786.35 18.0021 786.25 17.9691C786.151 17.936 786.045 17.9269 785.941 17.9421H785.513C785.228 17.9421 785.085 17.8385 785.085 17.6312V16.103C785.079 16.0084 785.104 15.9144 785.159 15.8366C785.213 15.7589 785.292 15.702 785.384 15.6756C785.831 15.5127 786.306 15.4337 786.783 15.4424C787.241 15.4035 787.7 15.4946 788.109 15.7055C788.517 15.9163 788.858 16.2382 789.091 16.634C789.527 16.2198 790.046 15.9003 790.612 15.6953C791.178 15.4903 791.781 15.4042 792.383 15.4424C792.966 15.414 793.549 15.5234 794.082 15.762C794.616 16.0005 795.086 16.3613 795.454 16.8153C795.883 16.3495 796.41 15.9847 796.997 15.7472C797.585 15.5098 798.217 15.4057 798.85 15.4424C799.416 15.416 799.98 15.5071 800.509 15.71C801.038 15.9128 801.519 16.223 801.921 16.621C802.315 17.0361 802.62 17.5268 802.819 18.0633C803.017 18.5999 803.104 19.1711 803.075 19.7423V22.2419C803.075 22.7341 803.295 22.9802 803.71 22.9802C803.911 22.9896 804.112 22.9677 804.306 22.9154C804.574 22.9154 804.716 23.019 804.734 23.2263L804.851 24.8452Z" fill="#282938"/>
<path d="M652.873 14.0697C653.829 10.2293 656.044 6.81882 659.164 4.3815C662.284 1.94419 666.131 0.620117 670.092 0.620117C674.052 0.620117 677.899 1.94419 681.019 4.3815C684.139 6.81882 686.354 10.2293 687.31 14.0697H685.755C683.131 14.0311 680.561 14.8147 678.406 16.3104C678.281 16.4004 678.152 16.4825 678.017 16.5564H677.836C677.701 16.4825 677.571 16.4004 677.447 16.3104C675.272 14.8493 672.712 14.069 670.092 14.069C667.471 14.069 664.911 14.8493 662.736 16.3104C662.612 16.4004 662.482 16.4825 662.347 16.5564H662.166C662.031 16.4825 661.902 16.4004 661.777 16.3104C659.622 14.8147 657.052 14.0311 654.428 14.0697H652.873ZM682.955 22.1903C683.753 21.569 684.743 21.2439 685.755 21.2708H687.841V17.1133H685.755C683.973 17.0918 682.232 17.646 680.791 18.6934C679.98 19.2909 678.999 19.6132 677.991 19.6132C676.984 19.6132 676.003 19.2909 675.192 18.6934C673.714 17.6656 671.957 17.1146 670.156 17.1146C668.356 17.1146 666.599 17.6656 665.121 18.6934C664.31 19.2909 663.329 19.6132 662.322 19.6132C661.314 19.6132 660.333 19.2909 659.522 18.6934C658.063 17.6326 656.297 17.0777 654.493 17.1133H652.342V21.2708H654.428C655.44 21.2439 656.43 21.569 657.228 22.1903C658.703 23.2188 660.458 23.7703 662.257 23.7703C664.055 23.7703 665.811 23.2188 667.286 22.1903C668.085 21.5708 669.074 21.2461 670.085 21.2708C671.097 21.2418 672.087 21.567 672.885 22.1903C674.362 23.2181 676.119 23.7691 677.92 23.7691C679.72 23.7691 681.477 23.2181 682.955 22.1903ZM682.955 29.6244C683.753 29.0031 684.743 28.678 685.755 28.7049H687.841V24.5475H685.755C683.973 24.5259 682.232 25.0801 680.791 26.1275C679.98 26.725 678.999 27.0473 677.991 27.0473C676.984 27.0473 676.003 26.725 675.192 26.1275C673.714 25.0996 671.957 24.5487 670.156 24.5487C668.356 24.5487 666.599 25.0996 665.121 26.1275C664.31 26.725 663.329 27.0473 662.322 27.0473C661.314 27.0473 660.333 26.725 659.522 26.1275C658.063 25.0667 656.297 24.5118 654.493 24.5475H652.342V28.7049H654.428C655.44 28.678 656.43 29.0031 657.228 29.6244C658.703 30.653 660.458 31.2044 662.257 31.2044C664.055 31.2044 665.811 30.653 667.286 29.6244C668.085 29.005 669.074 28.6802 670.085 28.7049C671.097 28.6759 672.087 29.0011 672.885 29.6244C674.362 30.6522 676.119 31.2033 677.92 31.2033C679.72 31.2033 681.477 30.6522 682.955 29.6244Z" fill="#282938"/>
</g>
<g clip-path="url(#clip4_802_403)">
<path d="M918 9.90005H921.42V23.7674H918V9.90005ZM922.783 18.5512C922.783 15.1163 924.914 13.0575 928.11 13.0575C931.306 13.0575 933.436 15.1163 933.436 18.5512C933.436 21.9859 931.38 24.0661 928.11 24.0661C924.839 24.0661 922.783 22.0606 922.783 18.5512ZM930.049 18.5512C930.049 16.6631 929.314 15.5537 928.142 15.5537C926.97 15.5537 926.245 16.6204 926.245 18.5512C926.245 20.4819 926.97 21.5379 928.142 21.5379C929.314 21.5379 930.07 20.4819 930.07 18.5618L930.049 18.5512ZM934.8 24.4821H938.102C938.253 24.8382 938.515 25.1351 938.85 25.3277C939.185 25.5203 939.573 25.598 939.956 25.5488C941.266 25.5488 941.948 24.8448 941.948 23.7994V21.8793H941.959C941.677 22.4772 941.22 22.9755 940.65 23.3087C940.079 23.6419 939.422 23.7944 938.763 23.746C936.259 23.746 934.598 21.8366 934.598 18.5512C934.598 15.2656 936.185 13.2175 938.859 13.2175C939.534 13.1813 940.204 13.3558 940.777 13.7169C941.349 14.078 941.796 14.6079 942.055 15.2336H941.959V13.3029H945.347V23.6927C945.347 26.1995 943.131 27.7676 939.871 27.7676C936.909 27.7569 935.013 26.4022 934.821 24.4928L934.8 24.4821ZM941.959 18.5512C941.959 16.8764 941.192 15.8203 939.977 15.8203C938.763 15.8203 938.017 16.8871 938.017 18.5512C938.017 20.2152 938.752 21.1966 939.977 21.1966C941.203 21.1966 941.959 20.2899 941.959 18.5512ZM946.7 18.5512C946.7 15.1163 948.83 13.0575 952.026 13.0575C955.222 13.0575 957.353 15.1163 957.353 18.5512C957.353 21.9859 955.286 24.0661 952.026 24.0661C948.766 24.0661 946.721 22.0606 946.721 18.5512H946.7ZM953.965 18.5512C953.965 16.6631 953.219 15.5537 952.058 15.5537C950.897 15.5537 950.162 16.6204 950.162 18.5512C950.162 20.4819 950.886 21.5379 952.058 21.5379C953.23 21.5379 953.986 20.4819 953.986 18.5618L953.965 18.5512ZM958.738 10.7747C958.723 10.4259 958.812 10.0807 958.995 9.78333C959.178 9.48599 959.445 9.2502 959.763 9.10628C960.08 8.96237 960.434 8.91689 960.777 8.97567C961.121 9.03453 961.439 9.19495 961.691 9.43639C961.943 9.67782 962.117 9.98914 962.191 10.3304C962.264 10.6716 962.234 11.0271 962.105 11.3512C961.975 11.6752 961.751 11.9529 961.463 12.1487C961.174 12.3444 960.833 12.4492 960.485 12.4495C960.262 12.4552 960.04 12.4165 959.832 12.3357C959.625 12.2548 959.435 12.1335 959.274 11.9787C959.114 11.8238 958.986 11.6387 958.897 11.4339C958.809 11.229 958.762 11.0086 958.759 10.7854L958.738 10.7747ZM958.738 13.2922H962.2V23.81H958.791L958.738 13.2922ZM974.653 18.5512C974.653 21.9753 973.119 23.9594 970.509 23.9594C969.841 24.0007 969.176 23.8356 968.605 23.4865C968.033 23.1374 967.583 22.6211 967.313 22.0073H967.25V27.1916H963.829V13.3242H967.228V15.2016H967.292C967.552 14.5758 967.998 14.0453 968.57 13.6826C969.142 13.3199 969.812 13.1427 970.488 13.1749C973.172 13.1535 974.717 15.127 974.717 18.5618L974.653 18.5512ZM971.17 18.5512C971.17 16.8871 970.392 15.8097 969.188 15.8097C967.984 15.8097 967.228 16.8764 967.218 18.5512C967.207 20.2259 967.984 21.2819 969.188 21.2819C970.392 21.2819 971.234 20.2899 971.234 18.5618L971.17 18.5512ZM980.491 13.0468C983.357 13.0468 985.136 14.4016 985.157 16.5777H982.036C982.036 15.8203 981.408 15.351 980.47 15.351C979.532 15.351 979.085 15.7137 979.085 16.2577C979.085 16.8017 979.479 16.9724 980.268 17.1324L982.462 17.5804C984.593 18.0285 985.445 18.8819 985.445 20.4713C985.445 22.6046 983.474 24.0554 980.545 24.0554C977.615 24.0554 975.708 22.6473 975.57 20.5033H978.883C978.978 21.2819 979.596 21.7406 980.598 21.7406C981.599 21.7406 982.068 21.4206 982.068 20.8552C982.068 20.2899 981.749 20.1939 980.928 20.0232L978.946 19.6072C976.89 19.1699 975.814 18.0925 975.814 16.4817C975.879 14.3909 977.668 13.0575 980.555 13.0575L980.491 13.0468ZM996.897 23.7994H993.584V21.8259H993.52C993.335 22.4842 992.931 23.0595 992.375 23.457C991.819 23.8546 991.144 24.0505 990.463 24.0127C989.947 24.0296 989.435 23.9371 988.958 23.7416C988.481 23.5459 988.052 23.2516 987.697 22.8779C987.341 22.5042 987.069 22.0595 986.898 21.5731C986.726 21.0866 986.66 20.5694 986.702 20.0552V13.3029H990.122V19.3192C990.122 20.5566 990.772 21.2286 991.837 21.2286C992.087 21.2267 992.333 21.1712 992.56 21.0657C992.786 20.9602 992.988 20.8073 993.151 20.6172C993.313 20.427 993.433 20.2043 993.503 19.9638C993.571 19.7233 993.588 19.4707 993.552 19.2232V13.3029H996.961L996.897 23.7994ZM998.548 13.2922H1001.87V15.319H1001.95C1002.13 14.6697 1002.52 14.0997 1003.07 13.6983C1003.61 13.2968 1004.27 13.0865 1004.94 13.1002C1005.62 13.0414 1006.29 13.2371 1006.83 13.6495C1007.37 14.0618 1007.74 14.6609 1007.86 15.3296H1008.01C1008.22 14.6574 1008.65 14.0743 1009.23 13.6711C1009.81 13.2679 1010.5 13.0672 1011.2 13.1002C1011.67 13.0824 1012.14 13.1636 1012.57 13.3387C1013.01 13.5137 1013.4 13.7785 1013.72 14.1159C1014.05 14.4532 1014.3 14.8554 1014.46 15.2963C1014.62 15.737 1014.68 16.2064 1014.65 16.6737V23.81H1011.2V17.5484C1011.2 16.4817 1010.7 15.8843 1009.73 15.8843C1009.52 15.8808 1009.31 15.9239 1009.11 16.0106C1008.91 16.0973 1008.74 16.2256 1008.59 16.3867C1008.45 16.5478 1008.35 16.7379 1008.28 16.9439C1008.22 17.15 1008.2 17.3671 1008.23 17.5804V23.81H1004.97V17.5164C1004.97 16.4497 1004.45 15.8843 1003.51 15.8843C1003.3 15.8826 1003.08 15.9274 1002.88 16.0158C1002.68 16.1042 1002.51 16.234 1002.36 16.3967C1002.22 16.5594 1002.11 16.7511 1002.05 16.9589C1001.98 17.1667 1001.96 17.3859 1001.99 17.6018V23.81H998.57L998.548 13.2922Z" fill="#282938"/>
<path d="M911.236 10.8063C911.236 8.68319 910.596 6.60957 909.399 4.85701C908.202 3.10445 906.505 1.75469 904.529 0.984508C902.553 0.214331 900.391 0.059655 898.326 0.540737C896.261 1.02182 894.389 2.11623 892.955 3.68062H879.66V31.778H907.731V18.6467C908.833 17.6599 909.715 16.4517 910.318 15.1007C910.922 13.7497 911.235 12.2865 911.236 10.8063ZM905.835 10.8063C905.837 11.8236 905.538 12.8188 904.975 13.6658C904.412 14.5127 903.611 15.1733 902.673 15.5641C901.734 15.9549 900.702 16.0583 899.705 15.861C898.708 15.6639 897.792 15.1751 897.073 14.4564C896.354 13.7378 895.864 12.8216 895.665 11.824C895.466 10.8263 895.567 9.79199 895.955 8.85186C896.343 7.91172 897.002 7.10808 897.846 6.54264C898.691 5.97721 899.684 5.67539 900.7 5.67538C902.06 5.67538 903.365 6.21562 904.327 7.17754C905.29 8.13947 905.832 9.44453 905.835 10.8063ZM902.33 26.3698H885.061V9.08891H890.324C890.222 9.65582 890.169 10.2303 890.164 10.8063C890.167 13.6034 891.278 16.2852 893.253 18.2631C895.228 20.2409 897.907 21.3533 900.7 21.3562C901.246 21.3532 901.791 21.3069 902.33 21.2175V26.3698Z" fill="#282938"/>
</g>
</g>
<defs>
<clipPath id="clip0_802_403">
<rect width="160" height="32" fill="white"/>
</clipPath>
<clipPath id="clip1_802_403">
<rect width="136" height="32" fill="white" transform="translate(235)"/>
</clipPath>
<clipPath id="clip2_802_403">
<rect width="135" height="32" fill="white" transform="translate(444)"/>
</clipPath>
<clipPath id="clip3_802_403">
<rect width="153" height="32" fill="white" transform="translate(652)"/>
</clipPath>
<clipPath id="clip4_802_403">
<rect width="136" height="32" fill="white" transform="translate(879)"/>
</clipPath>
</defs>
</svg>
